# xmcd
#
# Track frame offsets:
#	150
#	19508
#	46389
#	61906
#	80414
#	95501
#	117701
#	136043
#	149605
#	166424
#
# Disc length: 2448 seconds
#
# Revision: 1
# Processed by: cddbd v1.5.2PL0 Copyright (c) Steve Scherf et al.
# Submitted via: audiograbber 1.83.01
#
DISCID=85098e0a
DTITLE=Barry Ollman - What´ll It Be
DYEAR=2014
DGENRE=
TTITLE0=Imogen´s Lament
TTITLE1=Painting The West
TTITLE2=Banker´s Holiday
TTITLE3=Lean In Close
TTITLE4=See Ya In Okemah
TTITLE5=Blue Colorado
TTITLE6=Somthing To Say
TTITLE7=The Old Coutry
TTITLE8=The Other Half
TTITLE9=Almost Time
EXTD=
EXTT0=
EXTT1=
EXTT2=
EXTT3=
EXTT4=
EXTT5=
EXTT6=
EXTT7=
EXTT8=
EXTT9=
PLAYORDER=
